<?xml version="1.0" encoding="utf-8"?>
<!-- Generator: Adobe Illustrator 27.3.1, SVG Export Plug-In . SVG Version: 6.00 Build 0)  -->
<svg version="1.1" xmlns="http://www.w3.org/2000/svg" xmlns:xlink="http://www.w3.org/1999/xlink" x="0px" y="0px"
	 viewBox="0 0 576 288" style="enable-background:new 0 0 576 288;" xml:space="preserve">
<style type="text/css">
	.st0{fill:#022145;}
	.st1{fill:url(#SVGID_1_);}
	.st2{fill:url(#SVGID_00000133488781011443534770000016536537887250036628_);}
	.st3{fill:#A6A6A6;}
	.st4{fill:url(#SVGID_00000106831600792599828980000002013098301123058097_);}
	.st5{fill:url(#SVGID_00000139283053984831263660000003348485041075425429_);}
</style>
<g id="Layer_1">
	<rect id="backgound_blu" x="-0.8" class="st0" width="576" height="288"/>
</g>
<g id="luce_minore_00000182506388581401923390000005943477790013267344_">
	<g id="luce_minore_00000112611089827685582290000000582632270832042931_">
		
			<radialGradient id="SVGID_1_" cx="-840.2114" cy="-22856.5312" r="102.572" gradientTransform="matrix(3.5996 0 0 -0.3541 3669.9424 -7943.3267)" gradientUnits="userSpaceOnUse">
			<stop  offset="4.863590e-02" style="stop-color:#A6A6A6"/>
			<stop  offset="7.309211e-02" style="stop-color:#A6A19E"/>
			<stop  offset="0.1107" style="stop-color:#A79389"/>
			<stop  offset="0.1567" style="stop-color:#A87C66"/>
			<stop  offset="0.2089" style="stop-color:#A95D35"/>
			<stop  offset="0.2591" style="stop-color:#AB3A00"/>
			<stop  offset="0.3015" style="stop-color:#AB2700"/>
			<stop  offset="0.3133" style="stop-color:#AB2100"/>
			<stop  offset="0.3291" style="stop-color:#A11F00"/>
			<stop  offset="0.4055" style="stop-color:#771700"/>
			<stop  offset="0.4859" style="stop-color:#521000"/>
			<stop  offset="0.5696" style="stop-color:#340A00"/>
			<stop  offset="0.6577" style="stop-color:#1D0600"/>
			<stop  offset="0.7521" style="stop-color:#0D0200"/>
			<stop  offset="0.8572" style="stop-color:#030100"/>
			<stop  offset="0.9946" style="stop-color:#000000"/>
		</radialGradient>
		<path class="st1" d="M575.9,114.2v71.4c-170.5-3.2-299.3-18-299.3-35.7C276.5,132.2,405.4,117.4,575.9,114.2z"/>
		
			<radialGradient id="SVGID_00000017483739425319292880000004124533427488510856_" cx="-840.2109" cy="-22856.5078" r="64.8107" gradientTransform="matrix(3.5996 0 0 -0.3541 3669.9424 -7943.3267)" gradientUnits="userSpaceOnUse">
			<stop  offset="4.863590e-02" style="stop-color:#ABABAB"/>
			<stop  offset="6.346079e-02" style="stop-color:#A8A4A3"/>
			<stop  offset="8.624946e-02" style="stop-color:#A2928E"/>
			<stop  offset="0.1142" style="stop-color:#96736B"/>
			<stop  offset="0.1461" style="stop-color:#87493A"/>
			<stop  offset="0.1789" style="stop-color:#741700"/>
			<stop  offset="0.2861" style="stop-color:#521000"/>
			<stop  offset="0.4026" style="stop-color:#340A00"/>
			<stop  offset="0.5263" style="stop-color:#1D0600"/>
			<stop  offset="0.659" style="stop-color:#0D0300"/>
			<stop  offset="0.8067" style="stop-color:#030100"/>
			<stop  offset="1" style="stop-color:#000000"/>
		</radialGradient>
		<path style="fill:url(#SVGID_00000017483739425319292880000004124533427488510856_);" d="M575.9,128v43.8
			c-94.8-2.9-163.6-11.6-163.6-21.9C412.3,139.6,481.1,130.9,575.9,128z"/>
	</g>
</g>
<g id="linee_00000143590148148003756030000012790950264534324099_">
	<g id="linee">
		<g>
			<g>
				<polygon class="st3" points="489.4,36 516.7,63.3 574,63.3 574,63.8 516.5,63.8 489.2,36.5 376.2,36.5 376.2,36 				"/>
			</g>
			<g>
				<path class="st3" d="M376.2,37.2c-0.5,0-0.9-0.4-0.9-0.9c0-0.5,0.4-0.9,0.9-0.9c0.5,0,0.9,0.4,0.9,0.9
					C377.1,36.7,376.7,37.2,376.2,37.2z"/>
			</g>
		</g>
		<g>
			<g>
				<polygon class="st3" points="310.6,66.2 324,79.6 416.8,79.6 427.2,69.3 498,69.3 508,79.3 574,79.3 574,79.8 507.8,79.8 
					497.8,69.8 427.4,69.8 417,80.1 323.8,80.1 310.2,66.5 				"/>
			</g>
			<g>
				<path class="st3" d="M309.8,67c-0.4-0.4-0.4-1,0-1.3c0.4-0.4,1-0.4,1.3,0c0.4,0.4,0.4,1,0,1.3C310.7,67.4,310.1,67.4,309.8,67z"
					/>
			</g>
		</g>
		<g>
			<g>
				<polygon class="st3" points="574,103 574,103.5 552.7,103.5 560.3,95.8 560.6,96.2 553.9,103 				"/>
			</g>
			<g>
				<path class="st3" d="M559.8,95.4c0.4-0.4,1-0.4,1.3,0c0.4,0.4,0.4,1,0,1.3c-0.4,0.4-1,0.4-1.3,0
					C559.4,96.3,559.4,95.7,559.8,95.4z"/>
			</g>
		</g>
		<g>
			<g>
				<rect x="544.2" y="110.6" class="st3" width="29.9" height="0.5"/>
			</g>
			<g>
				<path class="st3" d="M544.2,111.8c-0.5,0-0.9-0.4-0.9-0.9c0-0.5,0.4-0.9,0.9-0.9c0.5,0,0.9,0.4,0.9,0.9
					C545.1,111.4,544.7,111.8,544.2,111.8z"/>
			</g>
		</g>
		<g>
			<g>
				<rect x="550.2" y="125.6" class="st3" width="23.9" height="0.5"/>
			</g>
			<g>
				<path class="st3" d="M550.2,126.8c-0.5,0-0.9-0.4-0.9-0.9c0-0.5,0.4-0.9,0.9-0.9c0.5,0,0.9,0.4,0.9,0.9
					C551.1,126.4,550.7,126.8,550.2,126.8z"/>
			</g>
		</g>
		<g>
			<g>
				<polygon class="st3" points="471.5,117.8 479.4,125.6 531,125.6 548.7,143.3 574,143.3 574,143.8 548.5,143.8 530.8,126.1 
					479.2,126.1 471.3,118.3 404.8,118.3 404.8,117.8 				"/>
			</g>
			<g>
				<path class="st3" d="M404.9,119c-0.5,0-0.9-0.4-0.9-0.9c0-0.5,0.4-0.9,0.9-0.9c0.5,0,0.9,0.4,0.9,0.9
					C405.8,118.6,405.4,119,404.9,119z"/>
			</g>
		</g>
		<g>
			<g>
				<polygon class="st3" points="381.8,112.9 396,127.1 464.2,127.1 480,143 531.7,143 548,159.3 574,159.3 574,159.8 547.8,159.8 
					531.5,143.5 479.8,143.5 464,127.6 395.8,127.6 381.6,113.4 276.8,113.4 276.8,112.9 				"/>
			</g>
			<g>
				<path class="st3" d="M276.9,114.1c-0.5,0-0.9-0.4-0.9-0.9c0-0.5,0.4-0.9,0.9-0.9c0.5,0,0.9,0.4,0.9,0.9
					C277.8,113.6,277.4,114.1,276.9,114.1z"/>
			</g>
		</g>
		<g>
			<g>
				<polygon class="st3" points="251.8,170 265.8,156 530.7,156 542,167.3 574,167.3 574,167.8 541.8,167.8 530.5,156.5 266,156.5 
					252,170.5 208.8,170.5 208.8,170 				"/>
			</g>
			<g>
				<path class="st3" d="M208.9,171.2c-0.5,0-0.9-0.4-0.9-0.9c0-0.5,0.4-0.9,0.9-0.9c0.5,0,0.9,0.4,0.9,0.9
					C209.8,170.7,209.4,171.2,208.9,171.2z"/>
			</g>
		</g>
		<g>
			<g>
				<polygon class="st3" points="401.9,174.2 421.4,193.6 552.8,193.6 571.2,175.3 574,175.3 574,175.8 571.4,175.8 553,194.1 
					421.2,194.1 401.6,174.5 				"/>
			</g>
			<g>
				<path class="st3" d="M401.1,175c-0.4-0.4-0.4-1,0-1.3c0.4-0.4,1-0.4,1.3,0c0.4,0.4,0.4,1,0,1.3
					C402.1,175.4,401.5,175.4,401.1,175z"/>
			</g>
		</g>
		<g>
			<g>
				<polygon class="st3" points="437.2,199.3 574,199.3 574,199.8 437.4,199.8 420.1,217.1 419.7,216.7 				"/>
			</g>
			<g>
				<path class="st3" d="M420.6,217.5c-0.4,0.4-1,0.4-1.3,0c-0.4-0.4-0.4-1,0-1.3c0.4-0.4,1-0.4,1.3,0
					C421,216.6,421,217.2,420.6,217.5z"/>
			</g>
		</g>
		<g>
			<g>
				<rect x="503.5" y="207.3" class="st3" width="70.5" height="0.5"/>
			</g>
			<g>
				<path class="st3" d="M503.5,208.5c-0.5,0-0.9-0.4-0.9-0.9c0-0.5,0.4-0.9,0.9-0.9c0.5,0,0.9,0.4,0.9,0.9
					C504.5,208.1,504.1,208.5,503.5,208.5z"/>
			</g>
		</g>
		<g>
			<g>
				<polygon class="st3" points="439.1,208.3 446,215.3 574,215.3 574,215.8 445.8,215.8 438.7,208.7 				"/>
			</g>
			<g>
				<path class="st3" d="M438.3,209.2c-0.4-0.4-0.4-1,0-1.3c0.4-0.4,1-0.4,1.3,0c0.4,0.4,0.4,1,0,1.3
					C439.2,209.6,438.6,209.6,438.3,209.2z"/>
			</g>
		</g>
		<g>
			<g>
				<polygon class="st3" points="574,223.3 574,223.8 445.2,223.8 453.1,231.7 452.8,232.1 444,223.3 				"/>
			</g>
			<g>
				<path class="st3" d="M453.6,231.2c0.4,0.4,0.4,1,0,1.3c-0.4,0.4-1,0.4-1.3,0c-0.4-0.4-0.4-1,0-1.3
					C452.6,230.8,453.2,230.8,453.6,231.2z"/>
			</g>
		</g>
		<g>
			<g>
				<polygon class="st3" points="420.4,223.6 437.4,240.6 511.8,240.6 521.2,231.3 574,231.3 574,231.8 521.4,231.8 512,241.1 
					437.2,241.1 420.2,224.1 350.8,224.1 350.8,223.6 				"/>
			</g>
			<g>
				<path class="st3" d="M350.9,224.8c-0.5,0-0.9-0.4-0.9-0.9c0-0.5,0.4-0.9,0.9-0.9c0.5,0,0.9,0.4,0.9,0.9
					C351.8,224.4,351.4,224.8,350.9,224.8z"/>
			</g>
		</g>
		<g>
			<g>
				<polygon class="st3" points="408.1,238 422,252 520.5,252 533.2,239.3 574,239.3 574,239.8 533.4,239.8 520.7,252.5 
					421.8,252.5 407.7,238.4 				"/>
			</g>
			<g>
				<path class="st3" d="M407.3,238.9c-0.4-0.4-0.4-1,0-1.3c0.4-0.4,1-0.4,1.3,0c0.4,0.4,0.4,1,0,1.3
					C408.2,239.2,407.6,239.2,407.3,238.9z"/>
			</g>
		</g>
		<g>
			<g>
				<polygon class="st3" points="520.8,265 538.5,247.3 574,247.3 574,247.8 538.7,247.8 521,265.5 421.5,265.5 421.5,265 				"/>
			</g>
			<g>
				<path class="st3" d="M421.5,266.2c-0.5,0-0.9-0.4-0.9-0.9c0-0.5,0.4-0.9,0.9-0.9c0.5,0,0.9,0.4,0.9,0.9
					C422.5,265.7,422.1,266.2,421.5,266.2z"/>
			</g>
		</g>
		<g>
			<g>
				<polygon class="st3" points="402.5,101.1 532.7,101.1 543.5,90.4 543.1,90 532.5,100.6 402.7,100.6 392,90 308.2,90 308.2,90.5 
					391.8,90.5 				"/>
			</g>
			<g>
				<path class="st3" d="M543.9,90.9c0.4-0.4,0.4-1,0-1.3c-0.4-0.4-1-0.4-1.3,0c-0.4,0.4-0.4,1,0,1.3
					C543,91.2,543.6,91.2,543.9,90.9z"/>
			</g>
			<g>
				<path class="st3" d="M308.2,91.2c-0.5,0-0.9-0.4-0.9-0.9c0-0.5,0.4-0.9,0.9-0.9c0.5,0,0.9,0.4,0.9,0.9
					C309.1,90.7,308.7,91.2,308.2,91.2z"/>
			</g>
		</g>
		<g>
			<g>
				<polygon class="st3" points="419.1,92.1 430,81.1 490.5,81.1 499.8,90.5 525.7,90.5 525.7,90 500,90 490.7,80.6 429.8,80.6 
					418.7,91.7 				"/>
			</g>
			<g>
				<path class="st3" d="M525.7,91.2c0.5,0,0.9-0.4,0.9-0.9c0-0.5-0.4-0.9-0.9-0.9c-0.5,0-0.9,0.4-0.9,0.9
					C524.7,90.7,525.1,91.2,525.7,91.2z"/>
			</g>
			<g>
				<path class="st3" d="M419.6,92.5c-0.4,0.4-1,0.4-1.3,0c-0.4-0.4-0.4-1,0-1.3c0.4-0.4,1-0.4,1.3,0C420,91.6,420,92.2,419.6,92.5z
					"/>
			</g>
		</g>
		<g>
			<g>
				<polygon class="st3" points="430.5,183.8 548,183.8 556.8,175 556.5,174.7 547.8,183.3 430.7,183.3 413.4,166 288.8,166 
					288.8,166.5 413.2,166.5 				"/>
			</g>
			<g>
				<path class="st3" d="M557.3,175.5c0.4-0.4,0.4-1,0-1.3c-0.4-0.4-1-0.4-1.3,0c-0.4,0.4-0.4,1,0,1.3
					C556.3,175.9,556.9,175.9,557.3,175.5z"/>
			</g>
			<g>
				<path class="st3" d="M288.9,167.1c-0.5,0-0.9-0.4-0.9-0.9c0-0.5,0.4-0.9,0.9-0.9c0.5,0,0.9,0.4,0.9,0.9
					C289.8,166.7,289.4,167.1,288.9,167.1z"/>
			</g>
		</g>
		<g>
			<g>
				<polygon class="st3" points="537.8,175.1 538.1,174.7 530,166.6 430.8,166.6 430.8,167.1 529.8,167.1 				"/>
			</g>
			<g>
				<path class="st3" d="M537.3,175.5c0.4,0.4,1,0.4,1.3,0c0.4-0.4,0.4-1,0-1.3c-0.4-0.4-1-0.4-1.3,0
					C536.9,174.6,536.9,175.2,537.3,175.5z"/>
			</g>
			<g>
				<path class="st3" d="M430.9,167.8c-0.5,0-0.9-0.4-0.9-0.9c0-0.5,0.4-0.9,0.9-0.9c0.5,0,0.9,0.4,0.9,0.9
					C431.8,167.4,431.4,167.8,430.9,167.8z"/>
			</g>
		</g>
		<g>
			<g>
				<polygon class="st3" points="357.5,56.1 405,56.1 414.7,46.5 483.7,46.5 483.7,46 414.5,46 404.8,55.6 357.5,55.6 				"/>
			</g>
			<g>
				<path class="st3" d="M483.7,47.1c0.5,0,0.9-0.4,0.9-0.9c0-0.5-0.4-0.9-0.9-0.9c-0.5,0-0.9,0.4-0.9,0.9
					C482.7,46.7,483.1,47.1,483.7,47.1z"/>
			</g>
			<g>
				<path class="st3" d="M357.5,56.8c-0.5,0-0.9-0.4-0.9-0.9c0-0.5,0.4-0.9,0.9-0.9c0.5,0,0.9,0.4,0.9,0.9
					C358.5,56.4,358.1,56.8,357.5,56.8z"/>
			</g>
		</g>
		<g>
			<g>
				<polygon class="st3" points="244.8,148.8 276.4,148.8 287.4,137.8 336.7,137.8 350.7,123.8 375.2,123.8 392.5,141.1 
					453.8,141.1 461.2,148.5 501.7,148.5 501.7,148 461.4,148 454,140.6 392.7,140.6 375.4,123.3 350.5,123.3 336.5,137.3 
					287.2,137.3 276.2,148.3 244.8,148.3 				"/>
			</g>
			<g>
				<path class="st3" d="M501.7,149.1c0.5,0,0.9-0.4,0.9-0.9c0-0.5-0.4-0.9-0.9-0.9c-0.5,0-0.9,0.4-0.9,0.9
					C500.7,148.7,501.1,149.1,501.7,149.1z"/>
			</g>
			<g>
				<path class="st3" d="M244.9,149.5c-0.5,0-0.9-0.4-0.9-0.9c0-0.5,0.4-0.9,0.9-0.9c0.5,0,0.9,0.4,0.9,0.9
					C245.8,149.1,245.4,149.5,244.9,149.5z"/>
			</g>
		</g>
		<g>
			<g>
				<polygon class="st3" points="365.8,148.5 430.4,148.5 430.4,148 366,148 353.4,135.3 353.1,135.7 				"/>
			</g>
			<g>
				<path class="st3" d="M430.3,149.1c0.5,0,0.9-0.4,0.9-0.9c0-0.5-0.4-0.9-0.9-0.9c-0.5,0-0.9,0.4-0.9,0.9
					C429.4,148.7,429.8,149.1,430.3,149.1z"/>
			</g>
			<g>
				<path class="st3" d="M352.6,136.2c-0.4-0.4-0.4-1,0-1.3c0.4-0.4,1-0.4,1.3,0c0.4,0.4,0.4,1,0,1.3
					C353.6,136.6,353,136.6,352.6,136.2z"/>
			</g>
		</g>
		<g>
			<g>
				<polygon class="st3" points="273.2,127.8 337,127.8 337,127.3 273.4,127.3 265.4,119.3 265.1,119.7 				"/>
			</g>
			<g>
				<path class="st3" d="M337,128.5c0.5,0,0.9-0.4,0.9-0.9c0-0.5-0.4-0.9-0.9-0.9c-0.5,0-0.9,0.4-0.9,0.9
					C336.1,128.1,336.5,128.5,337,128.5z"/>
			</g>
			<g>
				<path class="st3" d="M264.6,120.2c-0.4-0.4-0.4-1,0-1.3c0.4-0.4,1-0.4,1.3,0c0.4,0.4,0.4,1,0,1.3
					C265.6,120.6,265,120.6,264.6,120.2z"/>
			</g>
		</g>
		<g>
			<g>
				<polygon class="st3" points="303.5,209.8 415.4,209.8 424.1,201 423.8,200.7 415.2,209.3 303.5,209.3 				"/>
			</g>
			<g>
				<path class="st3" d="M424.6,201.5c0.4-0.4,0.4-1,0-1.3c-0.4-0.4-1-0.4-1.3,0c-0.4,0.4-0.4,1,0,1.3
					C423.6,201.9,424.2,201.9,424.6,201.5z"/>
			</g>
			<g>
				<path class="st3" d="M303.5,210.5c-0.5,0-0.9-0.4-0.9-0.9c0-0.5,0.4-0.9,0.9-0.9c0.5,0,0.9,0.4,0.9,0.9
					C304.5,210.1,304.1,210.5,303.5,210.5z"/>
			</g>
		</g>
		<g>
			<g>
				<polygon class="st3" points="275.2,216.3 308.7,182.8 395.5,182.8 409.8,197.1 410.1,196.7 395.7,182.3 308.5,182.3 
					274.9,215.9 				"/>
			</g>
			<g>
				<path class="st3" d="M409.3,197.5c0.4,0.4,1,0.4,1.3,0c0.4-0.4,0.4-1,0-1.3c-0.4-0.4-1-0.4-1.3,0
					C408.9,196.6,408.9,197.2,409.3,197.5z"/>
			</g>
			<g>
				<path class="st3" d="M275.8,216.7c-0.4,0.4-1,0.4-1.3,0c-0.4-0.4-0.4-1,0-1.3c0.4-0.4,1-0.4,1.3,0
					C276.1,215.7,276.1,216.3,275.8,216.7z"/>
			</g>
		</g>
		<g>
			<g>
				<rect x="310.8" y="198" class="st3" width="86.2" height="0.5"/>
			</g>
			<g>
				<path class="st3" d="M397,199.1c0.5,0,0.9-0.4,0.9-0.9c0-0.5-0.4-0.9-0.9-0.9c-0.5,0-0.9,0.4-0.9,0.9
					C396.1,198.7,396.5,199.1,397,199.1z"/>
			</g>
			<g>
				<path class="st3" d="M310.9,199.1c-0.5,0-0.9-0.4-0.9-0.9c0-0.5,0.4-0.9,0.9-0.9c0.5,0,0.9,0.4,0.9,0.9
					C311.8,198.7,311.4,199.1,310.9,199.1z"/>
			</g>
		</g>
	</g>
</g>
<g id="luce_grande">
	<g id="luce_maggiore_00000152257586717749278040000007819464976606513798_">
		<g>
			
				<radialGradient id="SVGID_00000071556026871964966690000013932725984746796698_" cx="-840.2114" cy="-5727.8247" r="102.5169" gradientTransform="matrix(3.5996 0 0 -1.6835 3669.9424 -9489.832)" gradientUnits="userSpaceOnUse">
				<stop  offset="4.863590e-02" style="stop-color:#A6A6A6"/>
				<stop  offset="7.309211e-02" style="stop-color:#A6A19E"/>
				<stop  offset="0.1107" style="stop-color:#A79389"/>
				<stop  offset="0.1567" style="stop-color:#A87C66"/>
				<stop  offset="0.2089" style="stop-color:#A95D35"/>
				<stop  offset="0.2591" style="stop-color:#AB3A00"/>
				<stop  offset="0.3015" style="stop-color:#AB2700"/>
				<stop  offset="0.3133" style="stop-color:#AB2100"/>
				<stop  offset="0.3291" style="stop-color:#A11F00"/>
				<stop  offset="0.4055" style="stop-color:#771700"/>
				<stop  offset="0.4859" style="stop-color:#521000"/>
				<stop  offset="0.5696" style="stop-color:#340A00"/>
				<stop  offset="0.6577" style="stop-color:#1D0600"/>
				<stop  offset="0.7521" style="stop-color:#0D0200"/>
				<stop  offset="0.8572" style="stop-color:#030100"/>
				<stop  offset="0.9946" style="stop-color:#000000"/>
			</radialGradient>
			<path style="fill:url(#SVGID_00000071556026871964966690000013932725984746796698_);" d="M464.4,2.3h111.5v280.7H403.6
				c-77.9-31.6-127.1-78.3-127.1-130.3C276.5,88.2,352.2,32,464.4,2.3z"/>
			
				<radialGradient id="SVGID_00000069399473289194352890000017676212419767837100_" cx="-840.2109" cy="-5727.8179" r="64.7943" gradientTransform="matrix(3.5996 0 0 -1.6835 3669.9424 -9489.832)" gradientUnits="userSpaceOnUse">
				<stop  offset="4.863590e-02" style="stop-color:#ABABAB"/>
				<stop  offset="6.346079e-02" style="stop-color:#A8A4A3"/>
				<stop  offset="8.624946e-02" style="stop-color:#A2928E"/>
				<stop  offset="0.1142" style="stop-color:#96736B"/>
				<stop  offset="0.1461" style="stop-color:#87493A"/>
				<stop  offset="0.1789" style="stop-color:#741700"/>
				<stop  offset="0.2861" style="stop-color:#521000"/>
				<stop  offset="0.4026" style="stop-color:#340A00"/>
				<stop  offset="0.5263" style="stop-color:#1D0600"/>
				<stop  offset="0.659" style="stop-color:#0D0300"/>
				<stop  offset="0.8067" style="stop-color:#030100"/>
				<stop  offset="1" style="stop-color:#000000"/>
			</radialGradient>
			<path style="fill:url(#SVGID_00000069399473289194352890000017676212419767837100_);" d="M575.9,48.6v208.3
				c-94.8-13.9-163.6-55.2-163.6-104.1C412.3,103.9,481.1,62.5,575.9,48.6z"/>
		</g>
	</g>
</g>
</svg>
