<?xml version="1.0" encoding="utf-8"?>
<!-- Generator: Adobe Illustrator 27.3.1, SVG Export Plug-In . SVG Version: 6.00 Build 0)  -->
<svg version="1.1" xmlns="http://www.w3.org/2000/svg" xmlns:xlink="http://www.w3.org/1999/xlink" x="0px" y="0px"
	 viewBox="0 0 2834.6 2834.6" style="enable-background:new 0 0 2834.6 2834.6;" xml:space="preserve">
<style type="text/css">
	.st0{fill:#192541;}
	.st1{fill:#92C9F7;}
	.st2{fill:#17212B;}
	.st3{fill:#042F40;}
	.st4{fill:#FFFFFF;}
	.st5{fill:#87D0EF;}
	.st6{fill:#F6F7F0;}
	.st7{fill:#ECE7D4;}
	.st8{fill:#A7A8A2;}
</style>
<g id="cerchio_rosso">
	<path id="cerchio" class="st1" d="M1431.3,415.4C2265.1-32.2,2557,895,2557,1486.6s-297.3,1492.9-1125.7,1071.2
		S305.6,2078.3,305.6,1486.6S597.5,863,1431.3,415.4z"/>
</g>
<g id="robot">
	<g>
		<g>
			<path class="st2" d="M1573.3,1932.9c-34.1-33-68.4-65.8-102.8-98.4c-34.5-32.7-69.2-65.3-103.9-97.9
				c-34.7-32.6-69.5-65.1-104.1-97.8c-34.6-32.6-69.1-65.4-103.4-98.4c-34.2-32.9-68.1-66-101.7-99.5c-4.1-4.1-8.2-8.2-12.3-12.3
				c-6.1-6.1-15.5,3.4-9.5,9.5c33.5,33.5,67.3,66.7,101.4,99.6c34.2,33,68.6,65.8,103.2,98.5c34.6,32.7,69.3,65.3,104,97.9
				c34.7,32.6,69.4,65.1,104,97.8c34.5,32.6,68.9,65.4,103,98.3c4.2,4,8.3,8.1,12.5,12.1C1570.1,1948.4,1579.5,1939,1573.3,1932.9
				L1573.3,1932.9z"/>
		</g>
	</g>
	<g>
		<g>
			<path class="st2" d="M1503.6,2318.3c0-298.2,0-596.3,0-894.5c0-91.8,87.5-168.4,192.3-168.4c104.8,0,192.3,76.6,192.3,168.4
				c0,298.2,0,596.4,0,894.5c0,91.8-87.5,86.8-192.3,86.8C1591.1,2405,1503.6,2410.1,1503.6,2318.3L1503.6,2318.3z"/>
		</g>
		<path class="st3" d="M1468.6,2295.3c0,9.9,9.1,17.8,20.4,17.8h413.7c11.3,0,20.4-8,20.4-17.8l0,0c0-9.9-9.1-17.9-20.4-17.9H1489
			C1477.8,2277.4,1468.6,2285.4,1468.6,2295.3L1468.6,2295.3z"/>
		<path class="st3" d="M1468.6,2196.6c0,9.9,9.1,17.9,20.4,17.9h413.7c11.3,0,20.4-8,20.4-17.9l0,0c0-9.9-9.1-17.9-20.4-17.9H1489
			C1477.8,2178.7,1468.6,2186.8,1468.6,2196.6L1468.6,2196.6z"/>
		<path class="st3" d="M1468.6,2098c0,9.9,9.1,17.9,20.4,17.9h413.7c11.3,0,20.4-8,20.4-17.9l0,0c0-9.9-9.1-17.9-20.4-17.9H1489
			C1477.8,2080.1,1468.6,2088.1,1468.6,2098L1468.6,2098z"/>
		<path class="st3" d="M1468.6,1999.3c0,9.9,9.1,17.9,20.4,17.9h413.7c11.3,0,20.4-8,20.4-17.9l0,0c0-9.9-9.1-17.9-20.4-17.9H1489
			C1477.8,1981.5,1468.6,1989.5,1468.6,1999.3L1468.6,1999.3z"/>
		<path class="st3" d="M1468.6,1900.7c0,9.9,9.1,17.9,20.4,17.9h413.7c11.3,0,20.4-8,20.4-17.9l0,0c0-9.9-9.1-17.8-20.4-17.8H1489
			C1477.8,1882.8,1468.6,1890.8,1468.6,1900.7L1468.6,1900.7z"/>
		<path class="st3" d="M1468.6,1802.1c0,9.9,9.1,17.9,20.4,17.9h413.7c11.3,0,20.4-8,20.4-17.9l0,0c0-9.9-9.1-17.9-20.4-17.9H1489
			C1477.8,1784.2,1468.6,1792.2,1468.6,1802.1L1468.6,1802.1z"/>
		<path class="st3" d="M1468.6,1703.4c0,9.9,9.1,17.9,20.4,17.9h413.7c11.3,0,20.4-8,20.4-17.9l0,0c0-9.9-9.1-17.9-20.4-17.9H1489
			C1477.8,1685.5,1468.6,1693.5,1468.6,1703.4L1468.6,1703.4z"/>
		<path class="st3" d="M1468.6,1604.8c0,9.9,9.1,17.8,20.4,17.8h413.7c11.3,0,20.4-8,20.4-17.8l0,0c0-9.9-9.1-17.9-20.4-17.9H1489
			C1477.8,1586.9,1468.6,1594.9,1468.6,1604.8L1468.6,1604.8z"/>
		<path class="st3" d="M1468.6,1506.1c0,9.9,9.1,17.9,20.4,17.9h413.7c11.3,0,20.4-8,20.4-17.9l0,0c0-9.9-9.1-17.8-20.4-17.8H1489
			C1477.8,1488.3,1468.6,1496.3,1468.6,1506.1L1468.6,1506.1z"/>
	</g>
	<path class="st3" d="M1132.7,1092c0,260.7,229.5,432,512.7,432c283.2,0,512.7-171.3,512.7-432c0-260.7-229.5-472-512.7-472
		C1362.2,620.1,1132.7,831.4,1132.7,1092z"/>
	<g>
		<path class="st4" d="M1456.1,1107.8c86.1,0,155.8,61.1,155.8,136.4c0,75.4-69.8,136.4-155.8,136.4c-86.1,0-155.8-61.1-155.8-136.4
			C1300.3,1168.9,1370.1,1107.8,1456.1,1107.8z M1456.1,1340.4c60.7,0,109.8-43.1,109.8-96.1c0-53.1-49.2-96.1-109.8-96.1
			c-60.6,0-109.8,43-109.8,96.1C1346.3,1297.3,1395.5,1340.4,1456.1,1340.4z"/>
		<g>
			<path class="st2" d="M1335.9,1244.2c0,58.2,53.8,105.3,120.2,105.3c66.4,0,120.2-47.1,120.2-105.3c0-58.1-53.8-105.2-120.2-105.2
				C1389.7,1139,1335.9,1186.1,1335.9,1244.2z"/>
			<path class="st5" d="M1397,1244.2c0,28.6,26.5,51.8,59.1,51.8c32.6,0,59.1-23.2,59.1-51.8c0-28.6-26.5-51.8-59.1-51.8
				C1423.5,1192.5,1397,1215.6,1397,1244.2z"/>
		</g>
	</g>
	<g>
		<path class="st6" d="M1276.3,495.2c202.2-53.2,438.5-65,637.2-2.5c422.4,132.6,480.7,459.2,340.9,795.9
			c-52.9,127.4-241.8,415.8-372.9,530.6c0,0-49.5-43.4-154.4-43.4c0,0-53.4-382.6,154.4-558.7c164.4-139.2,282.6-375,0-505.1
			c-60.9-28-282.6-74-454.5-23c0,0,198.1,227,32,346.9c-166.1,119.9-166.1,119.9-166.1,119.9s186.5,214.3,221.4,255.1
			c35,40.8,58.3,109.7-128.2,250c-186.5,140.3-263.6,262.8-357.6,237.2c-94-25.5-88.2-168.3-88.2-168.3s-55.8-18-59.4-61.3
			c-1.8-21.7,44.8-52.3,44.8-52.3s-43.7,7.6-71.4-14c0,0,16-63.8,0-93.1c0,0-107.8-1.3-103.4-71.4c4.4-70.1,102-181.1,110.7-221.9
			c8.7-40.8-71.4-16.6-48.1-135.2C837,962,771.7,627.8,1276.3,495.2z"/>
	</g>
	<path class="st7" d="M826.8,1148.2c32.5-46.6,125.3,0,125.3,0s-69.9-8.2-62.6,27.8c7.3,36,43.7,79.4,7.3,136.8
		c-36.4,57.4-30.6,75.2-26.2,80.4c4.4,5.1,69.9,34.4,8.7,96.9c0,0-2.5-48-42.2-30.6c-14.6,6.4-22.6,44.2-22.6,44.2
		s-108.5-7.2-40.6-134.2c66.8-124.9,79.1-131.1,86.5-149.9C872.7,1188.4,810.8,1171.2,826.8,1148.2z"/>
	<path class="st8" d="M979.7,1189c-0.8,6.8-42.3-6.2-68.5,11.5c-11.2,7.5-46.5-27.9-7.2-48.3C943.3,1131.6,981.2,1176.3,979.7,1189z
		"/>
	<path class="st7" d="M1080.2,599.7c-45.2,19.4-196.1,116.5-100.5,123.3c95.6,6.8,124.7,13.6,93.7,37.4
		c-31.1,23.8-58.1,212.6-109.7,255.1c-51.5,42.5-5.6,99.5,51.1,158.6c56.6,59.1-16.1,83.8-35.1,137.8c-19,54,59.8,275.1,0,326.1
		c-59.8,51-37.3,61.2,9.7,90.1c47,28.9,19.9,69.7,19.9,69.7c-12.7,40.6-13.6,103.7,62.2,86.8c92.2-20.7,450.7-420.1,347.3-524.3
		c-119.5-120.4-181-165.7-166.6-213.5c17.5-58.2,134-80.2,211.7-226.5c38.7-72.9-140.5-290.3-217.5-325.7
		C1213.9,579.7,1141.4,573.5,1080.2,599.7z"/>
	<path class="st7" d="M1862.5,1769.4c-45.2-30.6-96.1-25.5-100.5-39.5c-7.5-24.3-44.7-286.9,118-447.7
		c48.1-47.6,141.3,19.1,170.4,136.5S1890.9,1788.6,1862.5,1769.4z"/>
	<path class="st7" d="M2089.2,862.5c-9.7-35.7-103.2-207.9-365.1-219.4c-38.9-1.7-42.7-35.7,21.4-52.7c64.1-17,353,17,437.5,260.6
		C2188.5,867,2089.2,862.5,2089.2,862.5z"/>
	<g>
		<path class="st6" d="M2169.9,2556.4c8.7-192.6-17.2-320.4-110.7-441.3c-122.4-158.2-281.5-152.7-442.8-107.1
			c-180.6,51-719.6,305.2-719.6,535.7c0,40.8,41.7,62.8,639.9,58.7C2146.5,2598,2167.5,2608.1,2169.9,2556.4z"/>
	</g>
	<g>
		<path class="st7" d="M1386.2,2602.5c0,0,82.5-289.4,247.6-405.9c61.8-43.6,195.2-84.1,305.9,5.2
			c116.5,94.4,130.1,249.4,130.1,395.9C2069.8,2597.7,1536.6,2602.3,1386.2,2602.5z"/>
	</g>
</g>
<g id="rotella_00000088839908575622668680000013636251446069012098_">
	<g id="rotella">
		<path class="st5" d="M1686.1,708.4c162.3,0,293.9,115.2,293.9,257.3c0,142.1-131.6,257.3-293.9,257.3
			c-162.3,0-293.9-115.2-293.9-257.3C1392.2,823.6,1523.7,708.4,1686.1,708.4z M1686.1,1147.1c114.4,0,207.1-81.2,207.1-181.4
			c0-100.1-92.7-181.3-207.1-181.3c-114.4,0-207.1,81.2-207.1,181.3C1479,1065.8,1571.7,1147.1,1686.1,1147.1z"/>
		<g>
			<path class="st2" d="M1459.3,965.7c0,109.7,101.5,198.5,226.8,198.5c125.2,0,226.8-88.9,226.8-198.5
				c0-109.7-101.5-198.6-226.8-198.6C1560.8,767.2,1459.3,856,1459.3,965.7z"/>
			<path class="st5" d="M1638.4,965.7c0,23,21.4,41.8,47.7,41.8c26.3,0,47.7-18.7,47.7-41.8c0-23.1-21.4-41.8-47.7-41.8
				C1659.7,923.9,1638.4,942.6,1638.4,965.7z"/>
			<g>
				<g>
					<path class="st4" d="M1651,843.3c19.8,39.6,52.2,39.6,72,0l21.9-43.7c19.8-39.6-4.4-72.1-53.8-72.1h-8.1
						c-49.4,0-73.6,32.4-53.8,72.1L1651,843.3z"/>
					<path class="st4" d="M1721.2,1088.1c-19.8-39.6-52.2-39.6-72,0l-21.9,43.7c-19.8,39.6,4.4,72.1,53.8,72.1h8.1
						c49.4,0,73.6-32.4,53.8-72.1L1721.2,1088.1z"/>
				</g>
				<g>
					<path class="st4" d="M1534,997.2c45.3-17.3,45.3-45.7,0-63.1l-49.9-19.1c-45.3-17.3-82.3,3.9-82.3,47.1v7.1
						c0,43.2,37,64.5,82.3,47.1L1534,997.2z"/>
					<path class="st4" d="M1838.1,934.2c-45.3,17.3-45.3,45.7,0,63.1l49.9,19.1c45.3,17.4,82.3-3.9,82.3-47.1v-7.1
						c0-43.3-37-64.5-82.3-47.1L1838.1,934.2z"/>
				</g>
				<g>
					<path class="st4" d="M1562.4,900.9c46,15.7,68.9-4.3,50.9-44.6l-19.9-44.4c-18-40.3-61.3-48.2-96.2-17.6l-5.7,5
						c-34.9,30.6-25.9,68.5,20.1,84.3L1562.4,900.9z"/>
					<path class="st4" d="M1809.8,1030.6c-46-15.8-68.9,4.3-50.9,44.6l19.9,44.4c18,40.3,61.3,48.2,96.2,17.6l5.7-5
						c34.9-30.6,25.9-68.5-20.1-84.3L1809.8,1030.6z"/>
				</g>
				<g>
					<path class="st4" d="M1604,1082.2c18-40.3-4.9-60.4-50.9-44.6l-50.8,17.4c-46,15.8-55.1,53.7-20.1,84.3l5.7,5
						c34.9,30.6,78.3,22.6,96.3-17.7L1604,1082.2z"/>
					<path class="st4" d="M1768.1,849.3c-18,40.3,4.9,60.4,50.9,44.6l50.7-17.4c46-15.8,55.1-53.7,20.2-84.2l-5.7-5.1
						c-34.9-30.6-78.3-22.6-96.3,17.6L1768.1,849.3z"/>
				</g>
			</g>
		</g>
	</g>
</g>
</svg>
