<?xml version="1.0" encoding="utf-8"?>
<!-- Generator: Adobe Illustrator 27.3.1, SVG Export Plug-In . SVG Version: 6.00 Build 0)  -->
<svg version="1.1" xmlns="http://www.w3.org/2000/svg" xmlns:xlink="http://www.w3.org/1999/xlink" x="0px" y="0px"
	 viewBox="0 0 1920 1080" style="enable-background:new 0 0 1920 1080;" xml:space="preserve">
<style type="text/css">
	.st0{fill:#022145;}
	.st1{fill:none;stroke:#70A1CD;stroke-width:3;}
	.st2{opacity:0.32;fill:none;stroke:#70A1CD;stroke-width:3;enable-background:new    ;}
	.st3{opacity:0.417;fill:none;stroke:#70A1CD;stroke-width:3;enable-background:new    ;}
	.st4{fill:#70A1CD;}
	.st5{opacity:0.503;fill:#70A1CD;enable-background:new    ;}
	.st6{fill:none;stroke:#FC5745;stroke-width:3;}
	.st7{opacity:0.32;fill:none;stroke:#FC5745;stroke-width:3;enable-background:new    ;}
	.st8{opacity:0.417;fill:none;stroke:#FC5745;stroke-width:3;enable-background:new    ;}
	.st9{fill:#FC6A45;}
	.st10{fill:none;stroke:#FC5745;}
	.st11{opacity:0.503;}
</style>
<g id="backgrpund">
	<rect x="0" y="-3" class="st0" width="1921" height="1085"/>
</g>
<g id="linee_blu">
	<g id="linee_blu_00000064335014304534148440000000302965835221838233_">
		<path id="Tracciato_8" class="st1" d="M147.6,862.9V670.8h61.1v-254h-42.5V98.9"/>
		<path id="Tracciato_12" class="st2" d="M247.6,593.1V468.9h23.1V304.5h-16.1V98.9"/>
		<path id="Tracciato_9" class="st1" d="M293.4,975.1V754.8h34.4V463.5h-23.9V98.9"/>
		<path id="Tracciato_11" class="st1" d="M384.8,607V479.2h-34.4V310.3h23.9V98.9"/>
		<path id="Tracciato_10" class="st3" d="M441.8,947.6V734.2h-44V452h30.7V98.9"/>
		<ellipse id="Ellisse_33" class="st4" cx="293.6" cy="975.4" rx="8" ry="6.5"/>
		<ellipse id="Ellisse_32" class="st4" cx="147.6" cy="862.4" rx="8" ry="6.5"/>
		<ellipse id="Ellisse_35" class="st5" cx="441.6" cy="947.4" rx="8" ry="6.5"/>
		<ellipse id="Ellisse_36" class="st5" cx="247.6" cy="589.4" rx="8" ry="6.5"/>
		<ellipse id="Ellisse_34" class="st4" cx="384.6" cy="607.4" rx="8" ry="6.5"/>
	</g>
</g>
<g id="linee_rosse">
	<g id="linee_rosse_00000024691431675232943190000007431019018417627311_">
		<path id="Tracciato_3" class="st6" d="M1485.5,217.9V410h61.1v254h-42.5v317.9"/>
		<path id="Tracciato_4" class="st7" d="M1585.5,487.7v124.3h23.1v164.3h-16.1v205.7"/>
		<path id="Tracciato_5" class="st6" d="M1631.3,105.7V326h34.4v291.3h-23.9v364.6"/>
		<path id="Tracciato_6" class="st6" d="M1722.6,473.8v127.7h-34.4v168.9h23.9v211.4"/>
		<path id="Tracciato_7" class="st8" d="M1779.6,133.2v213.4h-44v282.2h30.7v353.1"/>
		<g id="Ellisse_27" transform="translate(1483.869)">
			<ellipse class="st9" cx="147.6" cy="105.4" rx="8" ry="6.5"/>
			<ellipse class="st10" cx="147.6" cy="105.4" rx="7.5" ry="6"/>
		</g>
		<g id="Ellisse_28" transform="translate(1337.869 113)">
			<ellipse class="st9" cx="147.6" cy="105.4" rx="8" ry="6.5"/>
			<ellipse class="st10" cx="147.6" cy="105.4" rx="7.5" ry="6"/>
		</g>
		<g id="Ellisse_29" transform="translate(1592 28)" class="st11">
			<ellipse class="st9" cx="187.6" cy="109.4" rx="8" ry="6.5"/>
			<ellipse class="st10" cx="187.6" cy="109.4" rx="7.5" ry="6"/>
		</g>
		<g id="Ellisse_30" transform="translate(1437.869 386)" class="st11">
			<ellipse class="st9" cx="147.6" cy="105.4" rx="8" ry="6.5"/>
			<ellipse class="st10" cx="147.6" cy="105.4" rx="7.5" ry="6"/>
		</g>
		<g id="Ellisse_31" transform="translate(1574.869 368)">
			<ellipse class="st9" cx="147.6" cy="105.4" rx="8" ry="6.5"/>
			<ellipse class="st10" cx="147.6" cy="105.4" rx="7.5" ry="6"/>
		</g>
	</g>
</g>
</svg>
